<svg width="1094" height="656" viewBox="0 0 1094 656" fill="none" xmlns="http://www.w3.org/2000/svg">
<path d="M650.288 222.615C790.512 292.945 879.725 372.774 917.927 462.102C957.077 551.906 953.061 643.845 905.877 737.919C875.375 798.735 832.335 846.721 776.756 881.878C721.654 916.084 655.212 932.71 577.429 931.755C501.069 930.324 417.412 906.799 326.456 861.18C256.344 826.015 191.708 782.298 132.546 730.029C74.8089 677.285 30.8326 621.929 0.617368 563.96L180.221 432.833C203.821 480.349 236.204 524.539 277.369 565.403C319.011 605.318 365.888 638.343 417.998 664.479C475.792 693.466 526.99 704.873 571.589 698.699C616.188 692.525 648.735 669.008 669.229 628.147C690.676 585.386 689.352 544.286 665.258 504.848C642.111 465.885 587.902 425.02 502.631 382.252L248.239 254.661L581.072 -281.274L1187.92 23.0921L1094.98 208.39L679.995 0.252327L569.281 181.986L650.288 222.615Z" fill="url(#paint0_linear_25_546)"/>
<defs>
<linearGradient id="paint0_linear_25_546" x1="1033.48" y1="1031.98" x2="391.233" y2="-149.453" gradientUnits="userSpaceOnUse">
<stop offset="0.091506" stop-color="#4FFFCA"/>
<stop offset="1" stop-color="#4FFFCA" stop-opacity="0"/>
</linearGradient>
</defs>
</svg>
